<svg xmlns:dc="http://purl.org/dc/elements/1.1/" xmlns:cc="http://creativecommons.org/ns#" xmlns:rdf="http://www.w3.org/1999/02/22-rdf-syntax-ns#" xmlns:svg="http://www.w3.org/2000/svg" xmlns="http://www.w3.org/2000/svg" xmlns:sodipodi="http://sodipodi.sourceforge.net/DTD/sodipodi-0.dtd" width="480" height="480" version="1.1"><g transform="translate(0,-572.36217)"><path style="fill:#fff;" d="M 375.22919,848.44887 420,770.84614 l -89.49901,0 z m -54.12295,-72.15916 -44.74239,77.56011 89.499,0 z m 0,165.97892 44.75661,-77.60276 -89.499,0 z m -54.13716,-72.18764 -44.72817,77.60275 89.49898,0 z m -9.36633,-5.41513 -89.48481,0 44.75664,77.60277 z m -44.72817,-88.37615 -44.75664,77.5601 89.48481,0 z m 9.36633,-5.44358 44.72817,77.60272 44.77081,-77.60272 z m 44.72817,-88.39039 -44.72817,77.56011 89.49898,0 z m -54.0945,72.15919 44.72817,-77.57433 -89.48481,0 z m -54.12295,-72.15919 -44.77083,77.56011 89.49901,0 z m 0,165.99311 44.72818,-77.60272 -89.49901,0 z M 104.62869,776.54552 60,853.84981 l 89.22894,0 -44.60025,-77.30429"/></g></svg>